Coordinates
version=1
nRows=38
nColumns=12
inDegrees=yes

Units are S.I. units (second, meters, Newtons, ...)
Angles are in degrees

endheader
time	SC_y	SC_z	SC_x	AC_y	AC_z	AC_x	GH_y	GH_z	GH_yy	EL_x	PS_y
       0.0              -26.42          23.02          49.72           44.1         -19.79          5.044         -63.23          12.61         -37.95          77.92          138.5
   0.03868              -26.42          23.02          49.72           44.1         -19.79          5.044         -63.23           12.6         -37.96          77.92          138.5
   0.07736              -26.42          23.02          49.73           44.1         -19.78          5.045         -63.24           12.6         -37.98          77.93          138.5
     0.116              -26.42          23.02          49.73           44.1         -19.78          5.045         -63.25          12.59         -37.99          77.94          138.5
    0.1547              -26.42          23.02          49.74           44.1         -19.78          5.045         -63.26          12.59         -38.01          77.95          138.5
    0.1934              -26.42          23.02          49.74           44.1         -19.77          5.045         -63.26          12.58         -38.02          77.95          138.5
    0.2321              -26.43          23.02          49.75           44.1         -19.77          5.046         -63.27          12.58         -38.04          77.96          138.5
    0.2708              -26.43          23.01          49.76           44.1         -19.77          5.046         -63.28          12.57         -38.06          77.97          138.5
    0.3094              -26.43          23.01          49.76           44.1         -19.76          5.046         -63.29          12.57         -38.08          77.98          138.5
    0.3481              -26.43          23.01          49.77           44.1         -19.76          5.046          -63.3          12.56          -38.1          77.99          138.4
    0.3868              -26.43          23.01          49.78           44.1         -19.75          5.047         -63.31          12.55         -38.12           78.0          138.4
    0.4255              -26.43          23.01          49.78           44.1         -19.74          5.047         -63.33          12.54         -38.14          78.02          138.4
    0.4642              -26.43          23.01          49.79          44.11         -19.74          5.048         -63.34          12.53         -38.17          78.03          138.4
    0.5028              -26.44           23.0           49.8          44.11         -19.73          5.048         -63.35          12.52          -38.2          78.05          138.4
    0.5415              -26.44           23.0          49.81          44.11         -19.72          5.048         -63.37          12.51         -38.23          78.06          138.3
    0.5802              -26.44           23.0          49.83          44.11         -19.72          5.049         -63.38           12.5         -38.26          78.08          138.3
    0.6189              -26.44           23.0          49.84          44.11         -19.71           5.05          -63.4          12.49          -38.3           78.1          138.3
    0.6576              -26.45          22.99          49.85          44.11          -19.7           5.05         -63.42          12.48         -38.34          78.12          138.3
    0.6962              -26.45          22.99          49.87          44.11         -19.69          5.051         -63.44          12.47         -38.38          78.14          138.2
    0.7349              -26.45          22.99          49.88          44.11         -19.68          5.051         -63.47          12.45         -38.43          78.16          138.2
    0.7736              -26.45          22.98           49.9          44.11         -19.66          5.052         -63.49          12.43         -38.48          78.19          138.2
    0.8123              -26.46          22.98          49.92          44.11         -19.65          5.053         -63.52          12.41         -38.54          78.22          138.1
     0.851              -26.46          22.97          49.94          44.11         -19.63          5.054         -63.55          12.39          -38.6          78.25          138.1
    0.8896              -26.47          22.97          49.96          44.11         -19.62          5.055         -63.59          12.37         -38.67          78.29          138.0
    0.9283              -26.47          22.96          49.99          44.11          -19.6          5.056         -63.63          12.35         -38.75          78.33          138.0
     0.967              -26.48          22.96          50.02          44.12         -19.58          5.058         -63.67          12.32         -38.83          78.37          137.9
     1.006              -26.48          22.95          50.05          44.12         -19.55          5.059         -63.72          12.29         -38.93          78.42          137.9
     1.044              -26.49          22.94          50.09          44.12         -19.53          5.061         -63.77          12.25         -39.04          78.48          137.8
     1.083               -26.5          22.93          50.13          44.12          -19.5          5.063         -63.83          12.21         -39.16          78.54          137.7
     1.122              -26.51          22.92          50.18          44.12         -19.46          5.065          -63.9          12.16          -39.3          78.62          137.6
      1.16              -26.52          22.91          50.23          44.13         -19.43          5.067         -63.98          12.11         -39.46           78.7          137.5
     1.199              -26.53           22.9           50.3          44.13         -19.38           5.07         -64.07          12.05         -39.64          78.79          137.4
     1.238              -26.55          22.88          50.37          44.13         -19.33          5.073         -64.18          11.98         -39.85           78.9          137.2
     1.276              -26.56          22.86          50.45          44.14         -19.27          5.077          -64.3           11.9          -40.1          79.03          137.0
     1.315              -26.58          22.84          50.55          44.14          -19.2          5.081         -64.44          11.81         -40.39          79.18          136.8
     1.354               -26.6          22.82          50.66          44.15         -19.12          5.086         -64.61           11.7         -40.73          79.35          136.6
     1.392              -26.63          22.79           50.8          44.15         -19.02          5.092         -64.81          11.57         -41.13          79.56          136.3
     1.431              -26.66          22.75          50.97          44.16         -18.91            5.1         -65.05          11.41         -41.61          79.81          136.0
